<svg id="visual" viewBox="0 0 1920 1080" width="1920" height="1080" xmlns="http://www.w3.org/2000/svg" xmlns:xlink="http://www.w3.org/1999/xlink" version="1.1"><rect x="0" y="0" width="1920" height="1080" fill="#e4e1e1"></rect><path d="M1085 0L937 0L937 154L919 154L919 309L911 309L911 463L883 463L883 617L794 617L794 771L1083 771L1083 926L735 926L735 1080L0 1080L0 926L0 926L0 771L0 771L0 617L0 617L0 463L0 463L0 309L0 309L0 154L0 154L0 0L0 0Z" fill="#e4e1e1"></path><path d="M671 0L470 0L470 154L619 154L619 309L744 309L744 463L557 463L557 617L562 617L562 771L574 771L574 926L639 926L639 1080L0 1080L0 926L0 926L0 771L0 771L0 617L0 617L0 463L0 463L0 309L0 309L0 154L0 154L0 0L0 0Z" fill="#ff8b82"></path><path d="M345 0L242 0L242 154L299 154L299 309L299 309L299 463L329 463L329 617L405 617L405 771L180 771L180 926L313 926L313 1080L0 1080L0 926L0 926L0 771L0 771L0 617L0 617L0 463L0 463L0 309L0 309L0 154L0 154L0 0L0 0Z" fill="#ff0000"></path></svg>