<svg id="visual" viewBox="0 0 1920 1080" width="1920" height="1080" xmlns="http://www.w3.org/2000/svg" xmlns:xlink="http://www.w3.org/1999/xlink" version="1.1"><path d="M0 185L175 174L349 185L524 163L698 195L873 77L1047 109L1222 206L1396 206L1571 185L1745 195L1920 195L1920 0L1745 0L1571 0L1396 0L1222 0L1047 0L873 0L698 0L524 0L349 0L175 0L0 0Z" fill="#e51515"></path><path d="M0 465L175 584L349 390L524 509L698 498L873 368L1047 325L1222 552L1396 627L1571 530L1745 487L1920 519L1920 193L1745 193L1571 183L1396 204L1222 204L1047 107L873 75L698 193L524 161L349 183L175 172L0 183Z" fill="#f25b4f"></path><path d="M0 617L175 714L349 498L524 573L698 595L873 487L1047 411L1222 714L1396 725L1571 714L1745 552L1920 638L1920 517L1745 485L1571 528L1396 625L1222 550L1047 323L873 366L698 496L524 507L349 388L175 582L0 463Z" fill="#f78a83"></path><path d="M0 908L175 854L349 897L524 833L698 951L873 973L1047 789L1222 865L1396 908L1571 897L1745 887L1920 822L1920 636L1745 550L1571 712L1396 723L1222 712L1047 409L873 485L698 593L524 571L349 496L175 712L0 615Z" fill="#f3b6b4"></path><path d="M0 1081L175 1081L349 1081L524 1081L698 1081L873 1081L1047 1081L1222 1081L1396 1081L1571 1081L1745 1081L1920 1081L1920 820L1745 885L1571 895L1396 906L1222 863L1047 787L873 971L698 949L524 831L349 895L175 852L0 906Z" fill="#e4e1e1"></path></svg>