<svg id="visual" viewBox="0 0 1920 1080" width="1920" height="1080" xmlns="http://www.w3.org/2000/svg" xmlns:xlink="http://www.w3.org/1999/xlink" version="1.1"><rect x="0" y="0" width="1920" height="1080" fill="#e4e1e1"></rect><path d="M489 0L654 83L603 166L246 249L501 332L406 415L447 498L261 582L251 665L578 748L712 831L638 914L674 997L616 1080L0 1080L0 997L0 914L0 831L0 748L0 665L0 582L0 498L0 415L0 332L0 249L0 166L0 83L0 0Z" fill="#ff0000" stroke-linecap="square" stroke-linejoin="bevel"></path></svg>